<?xml version="1.0" encoding="UTF-8"?>
<!--Generator: Apple Native CoreSVG 232.5-->
<!DOCTYPE svg
PUBLIC "-//W3C//DTD SVG 1.1//EN"
       "http://www.w3.org/Graphics/SVG/1.1/DTD/svg11.dtd">
<svg version="1.1" xmlns="http://www.w3.org/2000/svg" xmlns:xlink="http://www.w3.org/1999/xlink" width="196.094" height="194.238">
 <g>
  <rect height="194.238" opacity="0" width="196.094" x="0" y="0"/>
  <path d="M70.8403 62.222C70.8129 66.1034 70.5928 69.9868 70.2125 73.8689C64.7036 71.6523 60.567 71.5207 58.5938 73.5352C53.8086 78.2227 61.0352 95.2148 79.2969 113.379C97.5586 131.738 114.453 139.062 119.238 134.18C121.261 132.157 121.084 127.845 118.742 122.128C122.574 121.756 126.408 121.533 130.239 121.498C133.712 132.251 132.665 141.673 123.047 145.703L19.043 189.16C7.12891 194.141-3.90625 182.812 1.36719 170.996L47.0703 69.6289C51.3258 60.1771 60.4512 58.9855 70.8403 62.222ZM124.98 109.682C120.812 109.884 116.64 110.276 112.461 110.863C109.779 106.95 106.432 102.763 102.413 98.4549L110.888 89.9585C116.13 95.8362 121.153 102.737 124.98 109.682ZM102.361 81.4609L93.8393 89.9612C89.5051 85.9778 85.31 82.6655 81.4095 80.0332C82.0045 75.8022 82.404 71.579 82.611 67.3589C89.5397 71.1632 96.4412 76.2004 102.361 81.4609Z" fill="#000000" fill-opacity="0.85"/>
  <path d="M69.3359 18.2617C74.4141 18.2617 78.5156 14.1602 78.5156 9.08203C78.5156 4.10156 74.4141 0 69.3359 0C64.1602 0 60.1562 4.10156 60.1562 9.08203C60.1562 14.1602 64.1602 18.2617 69.3359 18.2617ZM80.2734 31.9336C79.5898 28.8086 77.5391 25.9766 74.2188 26.0742C70.9961 26.0742 67.5781 28.8086 68.2617 32.1289C71.7773 50.4883 71.7773 69.043 68.2617 87.5C67.4805 90.8203 70.9961 93.457 74.2188 93.457C77.4414 93.457 79.5898 90.8203 80.1758 87.6953C83.6914 69.043 83.6914 50.5859 80.2734 31.9336ZM117.09 31.6406C125.488 31.6406 132.227 24.8047 132.227 16.4062C132.227 7.91016 125.488 1.26953 117.09 1.26953C108.594 1.26953 101.855 7.91016 101.855 16.4062C101.855 24.8047 108.594 31.6406 117.09 31.6406ZM102.344 55.8594C106.543 55.8594 109.863 52.5391 109.863 48.3398C109.863 44.3359 106.543 40.918 102.344 40.918C98.2422 40.918 94.8242 44.3359 94.8242 48.3398C94.8242 52.5391 98.2422 55.8594 102.344 55.8594ZM179.98 22.6562C184.082 22.6562 187.402 19.3359 187.402 15.1367C187.402 11.1328 184.082 7.71484 179.98 7.71484C175.781 7.71484 172.461 11.1328 172.461 15.1367C172.461 19.3359 175.781 22.6562 179.98 22.6562ZM157.227 26.5625L142.871 40.918C140.43 43.2617 140.527 47.168 142.871 49.5117C145.215 51.7578 149.023 51.8555 151.367 49.5117L165.82 35.0586C168.164 32.7148 168.066 28.9062 165.82 26.5625C163.477 24.2188 159.57 24.1211 157.227 26.5625ZM128.613 55.2734L89.2578 94.5312C86.9141 96.7773 87.0117 100.684 89.2578 103.027C91.6016 105.371 95.6055 105.469 97.8516 103.027L137.109 63.6719C139.258 61.4258 139.453 57.6172 137.109 55.2734C134.766 52.9297 130.859 53.125 128.613 55.2734ZM187.012 91.7969C192.09 91.7969 196.094 87.793 196.094 82.6172C196.094 77.6367 192.09 73.5352 187.012 73.5352C181.836 73.5352 177.832 77.6367 177.832 82.6172C177.832 87.793 181.836 91.7969 187.012 91.7969ZM153.906 95.0195C161.035 95.0195 166.797 89.3555 166.797 82.2266C166.797 75 161.035 69.2383 153.906 69.2383C146.68 69.2383 141.016 75 141.016 82.2266C141.016 89.3555 146.68 95.0195 153.906 95.0195ZM184.082 131.152C189.16 131.152 193.164 127.246 193.164 122.07C193.164 116.992 189.16 112.891 184.082 112.891C179.004 112.891 174.902 116.992 174.902 122.07C174.902 127.246 179.004 131.152 184.082 131.152ZM160.449 112.109C141.797 108.594 123.34 108.594 104.688 112.109C101.562 112.793 98.8281 114.844 98.8281 118.164C98.9258 121.387 101.465 124.805 104.883 124.121C123.34 120.605 141.895 120.508 160.254 124.023C163.477 124.805 166.309 121.387 166.309 118.164C166.309 114.746 163.574 112.793 160.449 112.109Z" fill="#000000" fill-opacity="0.85"/>
 </g>
</svg>
