<?xml version="1.0" encoding="UTF-8"?>
<!--Generator: Apple Native CoreSVG 232.5-->
<!DOCTYPE svg
PUBLIC "-//W3C//DTD SVG 1.1//EN"
       "http://www.w3.org/Graphics/SVG/1.1/DTD/svg11.dtd">
<svg version="1.1" xmlns="http://www.w3.org/2000/svg" xmlns:xlink="http://www.w3.org/1999/xlink" width="247.369" height="244.824">
 <g>
  <rect height="244.824" opacity="0" width="247.369" x="0" y="0"/>
  <path d="M90.418 78.6042C90.3807 82.9759 90.1396 87.3542 89.7302 91.7311C82.0494 88.5715 76.1721 88.3389 73.3429 91.2109C66.7999 97.6562 76.2726 120.02 99.7101 143.359C123.148 166.895 145.413 176.465 151.956 169.824C154.863 166.962 154.552 160.842 151.137 152.827C155.473 152.414 159.808 152.168 164.139 152.122C168.932 165.907 167.996 178.088 155.765 183.203L23.0499 238.672C8.59682 244.727-4.78209 230.957 1.66323 216.602L60.0617 87.1094C65.4172 75.2637 77.1428 74.1544 90.418 78.6042ZM158.112 138.805C153.46 139.031 148.794 139.453 144.1 140.096C140.405 134.508 135.627 128.482 129.822 122.316L139.406 112.714C146.293 120.364 153.037 129.56 158.112 138.805ZM129.735 103.113L120.127 112.701C113.935 106.937 107.904 102.214 102.332 98.5901C102.993 93.8772 103.426 89.1861 103.661 84.5067C112.84 89.494 122.011 96.2114 129.735 103.113Z" fill="#ffffff" fill-opacity="0.85"/>
  <path d="M87.6984 21.3867C93.5578 21.3867 98.4406 16.6016 98.4406 10.6445C98.4406 4.78516 93.5578 0 87.6984 0C81.6437 0 76.9562 4.78516 76.9562 10.6445C76.9562 16.6016 81.6437 21.3867 87.6984 21.3867ZM100.589 39.6484C99.9054 36.0352 97.5617 33.0078 93.7531 33.0078C90.1398 33.1055 86.4289 36.1328 87.2101 40.0391C91.6046 62.9883 91.6046 86.6211 87.2101 109.961C86.3312 113.77 90.1398 116.699 93.6554 116.797C97.3664 116.797 99.8078 113.867 100.491 110.254C105.081 86.4258 105.081 63.1836 100.589 39.6484ZM148.05 38.2812C158.304 38.2812 166.409 30.0781 166.409 19.9219C166.409 9.57031 158.304 1.5625 148.05 1.5625C137.796 1.5625 129.691 9.57031 129.691 19.9219C129.691 30.0781 137.796 38.2812 148.05 38.2812ZM129.495 69.043C134.28 69.043 138.089 65.1367 138.089 60.3516C138.089 55.6641 134.28 51.7578 129.495 51.7578C124.808 51.7578 120.804 55.6641 120.804 60.3516C120.804 65.1367 124.808 69.043 129.495 69.043ZM227.737 26.9531C232.425 26.9531 236.234 23.1445 236.234 18.3594C236.234 13.5742 232.425 9.66797 227.737 9.66797C222.952 9.66797 219.144 13.5742 219.144 18.3594C219.144 23.1445 222.952 26.9531 227.737 26.9531ZM199.515 33.3008L181.253 51.5625C178.616 54.1992 178.714 58.4961 181.253 61.1328C183.987 63.7695 188.284 63.8672 190.921 61.1328L209.183 42.9688C211.819 40.332 211.722 35.9375 209.183 33.3008C206.546 30.7617 202.152 30.6641 199.515 33.3008ZM163.284 69.6289L113.48 119.336C110.843 121.875 110.941 126.367 113.48 129.004C116.116 131.543 120.609 131.641 123.148 129.004L172.855 79.1992C175.296 76.6602 175.394 72.2656 172.855 69.6289C170.316 66.9922 165.823 67.1875 163.284 69.6289ZM236.624 114.551C242.581 114.551 247.366 109.766 247.366 103.711C247.366 97.8516 242.581 93.0664 236.624 93.0664C230.569 93.0664 225.882 97.8516 225.882 103.711C225.882 109.766 230.569 114.551 236.624 114.551ZM194.632 118.555C203.323 118.555 210.257 111.816 210.257 103.125C210.257 94.5312 203.323 87.5977 194.632 87.5977C186.038 87.5977 179.3 94.5312 179.3 103.125C179.3 111.816 186.038 118.555 194.632 118.555ZM232.913 164.551C238.87 164.551 243.655 159.863 243.655 153.809C243.655 147.852 238.87 143.066 232.913 143.066C226.956 143.066 222.171 147.852 222.171 153.809C222.171 159.863 226.956 164.551 232.913 164.551ZM203.128 141.895C179.495 137.402 156.351 137.402 132.425 141.895C128.909 142.676 125.882 145.117 125.98 148.73C125.98 152.344 128.909 156.152 132.816 155.371C156.155 150.977 179.691 150.879 202.737 155.273C206.448 156.055 209.573 152.441 209.671 148.73C209.769 144.922 206.644 142.578 203.128 141.895Z" fill="#ffffff" fill-opacity="0.85"/>
 </g>
</svg>
